<svg width="185" height="33" viewBox="0 0 185 33" fill="none" xmlns="http://www.w3.org/2000/svg">
<path d="M9.97 0.589999L0.0700002 0.544997V31.955L9.97 32C18.16 32 24.775 25.025 24.775 16.34C24.775 7.61 18.16 0.589999 9.97 0.589999ZM9.745 26.105H5.875V6.665L9.745 6.62C14.785 6.62 18.88 10.985 18.88 16.34C18.88 21.695 14.785 26.105 9.745 26.105ZM45.9827 24.125C46.1177 23.495 46.1627 22.82 46.1627 22.145C46.1627 16.52 41.7527 11.93 36.3077 11.93C30.9077 11.93 26.4977 16.52 26.4977 22.145C26.4977 27.815 30.9077 32.405 36.3077 32.405C39.0077 32.405 41.4827 31.28 43.2377 29.435C43.8227 28.85 44.3627 28.175 44.7677 27.455V27.41L39.4577 25.43H39.4127C38.6027 26.24 37.5227 26.78 36.3077 26.78C34.5527 26.78 33.0227 25.655 32.3027 24.125H32.3477C32.3477 24.125 45.5777 24.125 45.9827 24.125ZM32.3027 20.165C32.9777 18.59 34.5077 17.42 36.3077 17.42C38.0627 17.42 39.5477 18.59 40.2677 20.12L32.3027 20.165ZM53.928 22.235C53.928 19.805 55.773 17.735 58.068 17.735C60.318 17.735 62.163 19.805 62.163 22.235V32H67.383V22.235C67.383 16.79 63.198 12.38 58.068 12.38C56.583 12.38 55.008 12.875 53.928 13.865C53.928 13.505 53.928 12.29 53.928 12.29H48.798V32H53.928V22.235ZM81.6177 26.87H77.1627C76.3977 26.87 75.8127 26.285 75.8127 25.565V17.465H81.6177V12.425H75.8127L75.7677 6.845H70.5477C70.5477 6.89 70.5477 25.655 70.5477 26.465C70.5477 29.525 73.1127 32.045 76.3077 32.045L81.6177 32V26.87ZM84.6134 32.045H89.8784V12.335H84.6134V32.045ZM87.2234 10.13C88.7984 10.13 90.1034 8.825 90.1034 7.16C90.1034 5.54 88.7984 4.19 87.2234 4.19C85.6484 4.19 84.3884 5.54 84.3884 7.16C84.3884 8.825 85.6484 10.13 87.2234 10.13ZM104.828 20.75C104.558 20.66 99.8332 19.085 99.6982 18.95C97.9432 17.87 99.3832 16.385 101.408 16.385C102.398 16.385 103.793 16.88 103.838 17.87H109.868C109.868 16.205 108.923 14.63 107.258 13.505C104.153 11.255 98.6182 11.255 95.5132 13.505C92.6332 15.395 92.0032 18.815 94.3882 21.29C95.2882 22.235 96.5032 22.955 97.9432 23.405C97.9882 23.405 102.398 24.935 102.443 24.935C104.873 25.7 103.883 27.725 101.408 27.77C99.9232 27.77 98.9332 27.005 98.9332 26.285H92.9482C92.9482 27.95 93.8482 29.525 95.5132 30.65C98.6182 32.9 104.153 32.9 107.258 30.65C110.138 28.76 110.768 25.34 108.383 22.865C107.528 21.965 106.268 21.245 104.828 20.75ZM123.717 26.87H119.262C118.497 26.87 117.912 26.285 117.912 25.565V17.465H123.717V12.425H117.912L117.867 6.845H112.647C112.647 6.89 112.647 25.655 112.647 26.465C112.647 29.525 115.212 32.045 118.407 32.045L123.717 32V26.87Z" fill="#3F3F3F"/>
<path d="M141.788 0.544997H133.373L124.958 32H130.943L133.058 24.17H142.193L144.353 32H150.338L141.788 0.544997ZM134.543 18.68L137.648 6.845L140.708 18.68H134.543ZM161.472 12.29C159.987 12.29 158.502 12.785 157.287 13.82C157.287 13.46 157.287 12.245 157.287 12.245H152.157V32H157.287V22.19C157.287 19.805 159.132 17.735 161.427 17.735C163.407 17.735 165.027 19.265 165.432 21.2C165.522 21.515 165.567 21.875 165.567 22.19V32C165.567 32 168.942 32 170.742 32C170.742 27.635 170.742 22.055 170.742 22.055C170.742 21.65 170.787 21.245 170.877 20.885C171.417 19.085 172.992 17.645 174.837 17.645C177.132 17.645 178.977 19.715 178.977 22.145V32H184.197V22.19C184.197 17.51 181.182 13.64 177.132 12.605C176.412 12.425 175.692 12.335 174.927 12.335C172.272 12.335 169.842 13.505 168.177 15.35C167.412 14.54 166.557 13.865 165.612 13.37C164.352 12.695 162.957 12.29 161.472 12.29Z" fill="#E21F4D"/>
</svg>
